<?xml version="1.0" standalone="no"?>
<!DOCTYPE svg PUBLIC "-//W3C//DTD SVG 20010904//EN"
 "http://www.w3.org/TR/2001/REC-SVG-20010904/DTD/svg10.dtd">
<svg version="1.0" xmlns="http://www.w3.org/2000/svg"
 width="624.000000pt" height="293.000000pt" viewBox="0 0 624.000000 293.000000"
 preserveAspectRatio="xMidYMid meet">

<g transform="translate(0.000000,293.000000) scale(0.100000,-0.100000)"
fill="#000000" stroke="none">
<path d="M103 2843 c-3 -116 16 -191 78 -312 32 -64 53 -120 58 -155 6 -46 16
-65 64 -124 31 -38 84 -94 117 -123 34 -30 87 -76 117 -102 76 -67 306 -238
373 -277 97 -57 151 -103 175 -150 30 -60 52 -131 66 -213 l11 -68 -104 -107
c-128 -132 -160 -172 -233 -292 -32 -52 -101 -153 -155 -225 -130 -173 -177
-248 -250 -395 -62 -127 -72 -164 -44 -158 10 2 25 28 38 64 46 126 179 343
318 516 29 37 88 123 130 190 87 140 271 349 406 461 44 37 118 111 164 164
54 62 97 102 123 114 40 19 40 19 55 -3 41 -60 64 -79 116 -94 54 -15 76 -14
181 12 14 4 23 2 23 -5 0 -6 -5 -10 -12 -9 -8 2 -13 -16 -16 -57 -1 -33 -9
-80 -17 -104 -8 -25 -15 -75 -15 -113 l0 -68 -92 5 c-90 5 -236 -8 -291 -25
l-28 -9 28 33 c15 18 75 88 133 155 58 67 105 127 105 134 0 22 -30 18 -45 -7
-8 -13 -87 -102 -176 -198 -325 -350 -467 -514 -537 -617 -39 -58 -103 -144
-144 -190 -82 -94 -208 -286 -225 -344 -9 -28 -8 -41 0 -49 16 -16 32 1 75 82
61 118 126 214 197 294 39 44 99 123 134 177 69 104 418 499 441 499 8 0 17
-4 20 -10 3 -5 25 -10 48 -10 23 -1 52 -6 64 -13 12 -7 73 -66 136 -133 202
-211 333 -283 587 -320 58 -9 188 -33 289 -55 225 -48 259 -49 303 -10 75 65
128 75 314 59 117 -9 137 -9 184 7 63 21 121 75 167 155 17 30 60 89 96 131
59 68 74 80 143 109 102 42 120 55 149 104 26 44 65 158 65 191 1 52 102 205
135 205 21 0 53 61 70 133 27 118 74 225 109 252 46 35 99 55 146 55 45 0 110
23 110 39 0 14 -27 14 -35 1 -3 -5 -31 -10 -62 -10 -36 0 -87 -11 -145 -31
-87 -29 -92 -30 -161 -19 -40 7 -93 21 -118 31 -80 31 -155 34 -247 10 -107
-28 -122 -27 -194 11 -56 29 -68 31 -167 32 -102 1 -109 0 -143 -26 -32 -24
-38 -26 -79 -16 -24 5 -78 10 -119 11 -86 1 -133 -16 -228 -83 -55 -38 -62
-40 -127 -39 -90 1 -99 5 -103 54 -8 104 -63 189 -149 231 l-55 27 98 96 c55
53 128 116 164 141 87 61 345 313 336 329 -5 7 -56 -34 -149 -121 -79 -73
-185 -165 -237 -205 -105 -79 -211 -184 -315 -313 -38 -47 -97 -115 -132 -151
l-62 -66 -22 23 c-29 31 -111 65 -173 71 -85 8 -228 -35 -299 -91 -30 -23 -76
-145 -77 -200 l0 -48 -37 7 c-58 10 -132 55 -172 103 -87 104 -103 183 -52
263 38 60 66 83 135 115 46 21 68 25 104 21 42 -4 53 -12 97 -61 67 -75 79
-74 70 8 -12 108 45 257 127 332 43 40 157 114 176 114 5 0 12 -18 16 -40 3
-22 16 -50 27 -61 40 -40 129 -3 129 52 0 10 4 19 9 19 18 0 41 -43 35 -67 -5
-17 -2 -23 10 -23 19 0 56 -114 56 -176 0 -94 -73 -231 -139 -260 -60 -26 -55
-46 6 -23 47 17 83 60 125 144 37 76 39 84 35 155 -2 41 -7 83 -11 93 -6 12
-4 17 6 17 8 0 32 18 53 41 22 22 85 68 140 102 123 76 214 165 246 241 22 54
25 56 83 76 34 11 72 27 86 36 24 14 23 14 -25 10 -27 -2 -66 -8 -85 -13 -21
-6 -49 -6 -70 0 -19 5 -57 11 -85 13 l-50 4 63 -31 c54 -27 62 -34 62 -59 0
-58 -111 -166 -260 -255 -68 -40 -146 -98 -167 -123 -10 -12 -14 -8 -28 24
-42 101 -115 149 -214 142 -46 -3 -72 -13 -141 -55 -103 -62 -149 -109 -188
-188 -33 -67 -62 -156 -62 -192 0 -28 -11 -29 -35 -3 -26 29 -81 43 -141 37
-49 -5 -56 -3 -98 30 -81 63 -135 166 -158 303 -10 59 -9 73 6 114 17 43 20
46 55 46 55 0 97 33 126 99 14 31 17 33 52 26 20 -4 54 -15 74 -25 53 -28 152
-140 188 -215 18 -38 37 -65 46 -65 16 0 20 15 6 24 -5 3 -20 29 -34 58 -44
91 -127 182 -201 218 -57 28 -73 32 -118 27 -29 -3 -63 -8 -75 -12 -17 -6 -23
-3 -23 8 0 27 -23 67 -38 67 -10 0 -12 -5 -6 -17 4 -10 9 -35 12 -55 3 -30 -1
-44 -23 -70 -15 -18 -52 -84 -82 -147 -30 -63 -72 -140 -92 -171 -64 -94 -82
-128 -73 -134 5 -3 44 50 88 118 43 68 82 122 87 119 4 -2 7 -14 7 -27 0 -27
38 -143 57 -172 9 -14 12 -37 8 -70 -8 -67 -13 -83 -47 -132 -57 -84 -107
-222 -79 -222 6 0 11 6 11 14 0 8 6 21 13 28 6 7 27 36 46 63 64 94 164 186
182 168 7 -7 -7 -21 -41 -43 -81 -52 -132 -132 -133 -210 -2 -98 102 -235 208
-275 l45 -18 -47 -56 c-90 -107 -141 -160 -211 -220 -38 -34 -73 -61 -76 -61
-13 0 -5 38 9 44 8 3 15 16 15 29 0 13 5 28 11 34 8 8 6 30 -6 81 -21 86 -11
141 41 228 34 57 40 74 27 74 -25 -1 -102 -153 -104 -204 0 -22 -144 262 -223
439 -67 151 -171 474 -200 620 -14 72 -34 155 -44 185 l-19 55 -46 3 c-50 3
-56 -2 -33 -27 29 -34 90 -241 71 -241 -3 0 -41 14 -84 30 -44 17 -103 35
-133 40 -43 7 -99 27 -160 58 -5 2 -8 -3 -8 -11 0 -9 27 -26 68 -42 125 -51
208 -94 277 -145 38 -27 73 -51 77 -52 13 -5 67 -146 103 -268 18 -63 38 -128
44 -143 20 -52 10 -50 -59 9 -30 25 -81 59 -114 75 -34 15 -93 52 -131 81 -96
72 -126 91 -133 83 -4 -4 0 -10 8 -15 8 -5 55 -40 105 -79 49 -39 114 -84 145
-100 30 -16 78 -50 107 -74 29 -25 68 -54 87 -66 25 -16 39 -35 50 -69 9 -26
27 -67 41 -91 31 -53 95 -201 88 -201 -3 0 -22 13 -42 28 -20 16 -70 49 -111
75 -172 107 -486 369 -576 481 -52 66 -64 87 -64 117 0 23 -19 74 -55 148 -68
138 -89 216 -81 294 6 58 0 107 -13 107 -3 0 -7 -39 -8 -87z m1313 -30 c-9
-38 -51 -73 -87 -73 -29 0 -29 0 -13 26 17 25 81 74 97 74 5 0 6 -12 3 -27z
m763 -228 c14 -8 21 -14 16 -15 -6 0 -16 -14 -23 -30 -25 -56 -78 -64 -100
-14 -14 28 -16 67 -4 78 10 10 78 -1 111 -19z m393 -469 c30 -41 58 -122 58
-165 -1 -44 -39 -113 -87 -157 -33 -31 -44 -47 -39 -60 6 -15 12 -12 47 22 23
21 53 60 67 85 l27 46 89 -3 c49 -2 97 1 106 6 16 9 17 2 13 -78 -4 -57 0
-116 11 -173 9 -47 16 -98 16 -112 0 -15 5 -27 11 -27 8 0 9 33 4 113 -8 127
2 176 62 302 32 69 37 73 79 85 46 13 142 8 202 -11 30 -10 33 -14 27 -37 -3
-14 -5 -67 -4 -117 1 -49 2 -114 1 -142 0 -29 4 -53 9 -53 18 0 29 52 29 134
0 95 15 155 56 221 l29 46 88 -5 c75 -4 95 -9 143 -36 42 -25 54 -36 48 -49
-10 -23 -23 -100 -23 -138 -1 -22 4 -33 13 -33 9 0 15 18 19 55 3 30 15 72 27
93 19 34 29 40 99 60 101 29 164 28 254 -3 39 -14 98 -28 130 -32 66 -7 64
-14 -13 -38 -30 -9 -93 -38 -140 -64 -208 -115 -456 -230 -555 -255 -55 -15
-136 -45 -180 -68 -44 -22 -146 -62 -226 -89 -80 -26 -188 -67 -240 -90 -86
-38 -252 -99 -271 -99 -5 0 5 18 21 41 45 62 55 124 31 201 -26 86 -69 149
-160 240 -75 73 -81 77 -176 108 -91 29 -136 50 -107 50 7 0 71 72 144 160
l133 159 50 -27 c27 -15 62 -45 78 -66z m-555 -121 c28 -8 62 -24 77 -36 23
-18 26 -27 26 -88 0 -166 -139 -285 -333 -286 -76 0 -80 1 -107 32 -27 30 -28
34 -15 59 16 31 11 49 -23 87 l-26 27 19 56 c25 75 82 118 197 148 70 19 123
19 185 1z m2233 -104 c0 -5 -11 -39 -25 -76 -14 -37 -30 -89 -36 -116 -6 -27
-19 -59 -29 -71 -18 -22 -20 -22 -32 -6 -7 10 -37 22 -67 28 -51 9 -171 67
-171 82 0 3 57 37 127 74 149 79 233 110 233 85z m-2014 -62 c98 -30 142 -58
223 -145 71 -77 127 -172 138 -237 14 -86 -65 -200 -179 -256 -111 -56 -185
-37 -295 75 -71 72 -100 124 -136 240 l-24 81 54 32 c64 39 105 92 123 158 17
67 19 73 24 73 2 0 35 -9 72 -21z m-586 -120 c0 -29 -19 -32 -30 -4 -6 14 -10
33 -10 42 0 14 3 14 20 -2 11 -10 20 -26 20 -36z m2413 -94 c26 -9 47 -21 47
-25 0 -5 -13 -24 -28 -42 -52 -61 -89 -123 -96 -163 -4 -22 -19 -74 -32 -117
-32 -99 -66 -136 -163 -174 -42 -17 -91 -45 -113 -66 -47 -43 -50 -42 -162 35
-38 26 -74 47 -78 47 -5 0 -46 17 -91 39 -45 21 -112 51 -149 66 -50 20 -76
38 -104 71 -20 25 -35 46 -33 47 2 1 63 31 135 66 l132 64 41 -16 c46 -19 276
-57 343 -57 24 0 63 -6 88 -14 49 -14 70 -12 70 9 0 21 -49 33 -182 45 -115
11 -263 44 -273 61 -3 4 25 19 63 34 37 15 76 35 87 45 11 9 38 23 60 30 22 7
67 27 100 44 33 17 78 38 100 47 l40 17 75 -39 c41 -21 96 -45 123 -54z
m-2093 -147 c36 -98 59 -138 113 -201 l50 -59 -99 4 -99 3 -14 57 c-13 51 -13
66 4 157 10 56 19 101 20 101 2 0 13 -28 25 -62z m1011 -201 c31 -7 63 -17 70
-24 8 -7 51 -26 94 -44 44 -17 85 -35 90 -39 6 -4 46 -22 90 -40 44 -18 98
-46 119 -62 22 -15 47 -28 55 -28 9 0 36 -14 60 -30 24 -17 48 -30 53 -30 4 0
-7 -21 -26 -47 -20 -27 -54 -77 -78 -113 -77 -116 -126 -135 -310 -118 -97 9
-142 9 -189 0 -56 -10 -79 -22 -157 -78 -20 -15 -31 -16 -93 -4 -56 9 -72 16
-79 34 -5 11 -26 37 -47 57 -22 19 -52 58 -68 85 -15 27 -45 68 -65 91 -20 23
-60 79 -89 125 -28 46 -58 92 -67 104 -14 20 -12 22 43 42 32 11 83 23 113 26
30 3 73 9 95 12 44 5 24 18 235 -156 43 -36 133 -109 199 -163 66 -53 123
-102 126 -107 6 -10 78 -50 90 -50 3 0 5 8 5 18 0 18 -119 120 -292 251 -60
46 -113 96 -141 135 -25 34 -54 70 -66 80 -22 20 -20 36 7 36 9 0 44 14 77 30
33 16 67 26 75 23 8 -2 40 -10 71 -16z m-743 -121 c42 -22 112 -103 145 -167
15 -31 50 -77 77 -104 27 -26 55 -62 62 -79 7 -17 30 -49 51 -71 21 -22 47
-52 58 -66 l19 -27 -110 24 c-61 13 -168 33 -239 43 -70 11 -159 30 -196 43
-112 36 -233 123 -376 268 l-125 127 130 8 131 7 42 -49 c23 -26 62 -84 87
-128 56 -97 181 -234 199 -216 8 8 -8 31 -69 94 -45 45 -93 105 -109 132 -15
28 -47 75 -71 107 -24 31 -44 59 -44 62 0 20 298 13 338 -8z"/>
<path d="M2358 2013 c7 -3 16 -2 19 1 4 3 -2 6 -13 5 -11 0 -14 -3 -6 -6z"/>
<path d="M2290 1951 c0 -8 90 -3 99 5 2 2 -19 4 -47 4 -29 0 -52 -4 -52 -9z"/>
<path d="M1650 1800 c0 -5 7 -10 15 -10 8 0 15 5 15 10 0 6 -7 10 -15 10 -8 0
-15 -4 -15 -10z"/>
<path d="M1693 1774 c-7 -19 2 -28 22 -21 19 8 19 23 0 31 -9 3 -18 -1 -22
-10z"/>
<path d="M1733 1735 c-7 -20 2 -29 21 -22 9 4 13 13 10 22 -8 19 -23 19 -31 0z"/>
<path d="M1908 1713 c7 -3 16 -2 19 1 4 3 -2 6 -13 5 -11 0 -14 -3 -6 -6z"/>
<path d="M1700 1680 c0 -5 5 -10 10 -10 6 0 10 5 10 10 0 6 -4 10 -10 10 -5 0
-10 -4 -10 -10z"/>
<path d="M1690 1630 c0 -5 5 -10 10 -10 6 0 10 5 10 10 0 6 -4 10 -10 10 -5 0
-10 -4 -10 -10z"/>
<path d="M2265 1774 c6 -5 28 -25 50 -44 l40 -35 -30 33 c-17 19 -39 38 -50
44 -11 6 -15 7 -10 2z"/>
<path d="M2160 1646 c0 -3 9 -10 20 -16 11 -6 20 -8 20 -6 0 3 -9 10 -20 16
-11 6 -20 8 -20 6z"/>
<path d="M2130 1607 c0 -2 15 -16 33 -33 l32 -29 -29 33 c-28 30 -36 37 -36
29z"/>
<path d="M2100 1571 c0 -6 4 -13 10 -16 6 -3 7 1 4 9 -7 18 -14 21 -14 7z"/>
<path d="M2076 1528 c22 -37 61 -81 88 -100 22 -16 18 -9 -16 25 -26 26 -50
56 -53 67 -4 11 -11 20 -16 20 -6 0 -7 -6 -3 -12z"/>
<path d="M2420 1497 c0 -19 16 -31 24 -18 3 5 -1 14 -9 21 -12 10 -15 10 -15
-3z"/>
<path d="M2480 1480 c0 -5 5 -10 10 -10 6 0 10 5 10 10 0 6 -4 10 -10 10 -5 0
-10 -4 -10 -10z"/>
<path d="M2385 1451 c-6 -11 9 -23 19 -14 9 9 7 23 -3 23 -6 0 -12 -4 -16 -9z"/>
<path d="M2448 1428 c-17 -14 -21 -27 -19 -69 1 -35 20 -56 58 -64 60 -12 97
66 57 123 -17 25 -70 30 -96 10z m96 -41 c13 -36 -2 -61 -38 -65 -37 -5 -56
14 -56 53 0 41 7 47 49 43 29 -2 38 -8 45 -31z"/>
<path d="M2350 1390 c0 -5 5 -10 10 -10 6 0 10 5 10 10 0 6 -4 10 -10 10 -5 0
-10 -4 -10 -10z"/>
<path d="M2340 1340 c0 -5 5 -10 10 -10 6 0 10 5 10 10 0 6 -4 10 -10 10 -5 0
-10 -4 -10 -10z"/>
<path d="M2375 1311 c-16 -3 -29 -11 -27 -16 2 -12 7 -12 45 -1 15 5 27 12 27
17 0 10 -1 10 -45 0z"/>
<path d="M2480 1270 c0 -5 5 -10 10 -10 6 0 10 5 10 10 0 6 -4 10 -10 10 -5 0
-10 -4 -10 -10z"/>
<path d="M2400 1260 c0 -5 4 -10 9 -10 6 0 13 5 16 10 3 6 -1 10 -9 10 -9 0
-16 -4 -16 -10z"/>
<path d="M1070 2873 c-64 -82 -90 -125 -90 -151 0 -32 22 -23 31 12 5 16 28
54 52 85 42 53 67 93 67 105 0 17 -20 0 -60 -51z"/>
<path d="M3121 2870 c-36 -75 -46 -168 -32 -274 14 -96 30 -133 93 -201 86
-94 195 -117 306 -63 24 11 44 19 45 17 23 -37 145 -161 171 -173 44 -21 155
-21 224 -1 171 51 225 253 122 459 -22 43 -40 79 -40 81 0 1 25 5 57 9 31 4
73 16 94 28 39 22 90 78 109 120 10 20 18 23 73 23 36 1 77 8 97 17 34 16 31
17 -127 16 -90 0 -163 -4 -163 -8 0 -11 33 -38 60 -48 24 -9 24 -9 -22 -54
-62 -62 -121 -75 -267 -59 -131 14 -230 57 -288 126 -35 42 -53 55 -53 38 0
-5 17 -30 37 -58 39 -53 48 -90 45 -199 -2 -104 -84 -236 -182 -295 -46 -28
-56 -26 -63 7 -7 36 -41 79 -80 98 -30 16 -126 24 -157 14 -10 -3 -14 1 -12
13 2 9 -2 16 -9 15 -17 -4 -29 66 -32 192 -2 98 0 108 26 154 31 56 33 66 12
66 -9 0 -28 -25 -44 -60z m763 -141 c43 -6 85 -17 93 -24 7 -8 30 -48 50 -90
32 -68 36 -85 37 -163 1 -73 -3 -94 -22 -129 -19 -37 -25 -41 -45 -34 -12 5
-21 16 -21 26 2 15 0 15 -15 1 -10 -9 -25 -16 -34 -16 -9 0 -32 -14 -51 -31
-26 -22 -42 -29 -58 -25 -21 6 -22 5 -5 -6 54 -38 54 -36 6 -43 -60 -9 -109
12 -161 67 -69 74 -91 113 -78 137 6 12 12 21 13 21 2 0 27 -22 55 -50 67 -65
86 -65 22 0 -28 27 -50 54 -50 60 0 6 12 32 26 56 l27 45 33 -32 c42 -41 44
-31 3 15 -29 34 -30 36 -18 76 l13 42 23 -46 c32 -63 38 -58 8 7 -19 40 -25
69 -25 123 l0 71 48 -23 c26 -13 83 -29 126 -35z m-571 -290 c37 -10 77 -55
77 -87 0 -30 -125 14 -165 58 -16 18 -17 23 -5 30 20 13 46 12 93 -1z m671
-172 c17 -13 17 -14 -5 -29 -31 -19 -99 -42 -106 -34 -3 3 6 21 21 41 29 37
59 45 90 22z"/>
<path d="M3770 2662 c0 -14 56 -96 76 -112 15 -12 15 -10 -3 10 -11 14 -31 44
-43 68 -21 41 -30 51 -30 34z"/>
<path d="M3850 2666 c0 -4 11 -22 25 -40 14 -18 25 -38 25 -44 0 -7 5 -12 11
-12 5 0 0 18 -13 41 -22 39 -48 69 -48 55z"/>
<path d="M3920 2661 c0 -6 5 -13 11 -17 6 -3 22 -30 35 -58 13 -28 24 -45 24
-39 0 18 -53 123 -62 123 -4 0 -8 -4 -8 -9z"/>
<path d="M3660 2478 c0 -18 83 -98 102 -98 7 0 3 7 -9 15 -12 8 -38 34 -57 57
-21 24 -36 35 -36 26z"/>
<path d="M3921 2334 c0 -11 3 -14 6 -6 3 7 2 16 -1 19 -3 4 -6 -2 -5 -13z"/>
<path d="M3221 2824 c0 -11 3 -14 6 -6 3 7 2 16 -1 19 -3 4 -6 -2 -5 -13z"/>
<path d="M1470 2810 c0 -5 5 -10 10 -10 6 0 10 5 10 10 0 6 -4 10 -10 10 -5 0
-10 -4 -10 -10z"/>
<path d="M1435 2770 c-4 -6 -3 -16 3 -22 6 -6 12 -6 17 2 4 6 3 16 -3 22 -6 6
-12 6 -17 -2z"/>
<path d="M1410 2716 c0 -8 5 -18 10 -21 6 -3 10 1 10 9 0 8 -4 18 -10 21 -5 3
-10 -1 -10 -9z"/>
<path d="M1285 2658 c8 -35 12 -44 19 -37 7 8 -6 69 -16 69 -6 0 -7 -13 -3
-32z"/>
<path d="M1327 2684 c-8 -8 1 -24 14 -24 5 0 9 7 9 15 0 15 -12 20 -23 9z"/>
<path d="M1370 2680 c0 -5 5 -10 10 -10 6 0 10 5 10 10 0 6 -4 10 -10 10 -5 0
-10 -4 -10 -10z"/>
<path d="M2010 2530 c0 -5 5 -10 10 -10 6 0 10 5 10 10 0 6 -4 10 -10 10 -5 0
-10 -4 -10 -10z"/>
<path d="M2016 2473 c-11 -11 -6 -23 9 -23 8 0 15 4 15 9 0 13 -16 22 -24 14z"/>
<path d="M2225 2451 c-7 -12 12 -24 25 -16 11 7 4 25 -10 25 -5 0 -11 -4 -15
-9z"/>
<path d="M1550 2408 c17 -26 35 -50 41 -53 6 -4 24 -25 40 -47 16 -23 29 -37
29 -31 0 5 -21 35 -47 65 -27 30 -58 68 -71 84 -13 16 -9 8 8 -18z"/>
<path d="M2130 2414 c0 -8 5 -12 10 -9 6 3 10 10 10 16 0 5 -4 9 -10 9 -5 0
-10 -7 -10 -16z"/>
<path d="M1400 2384 c0 -23 61 -104 90 -119 18 -9 34 -14 37 -11 3 3 -5 10
-18 15 -29 11 -71 55 -92 96 -9 17 -16 25 -17 19z"/>
<path d="M1485 2380 c22 -41 78 -120 82 -116 2 2 -12 28 -33 58 -40 56 -63 84
-49 58z"/>
<path d="M1875 2309 c-4 -6 -5 -12 -2 -15 2 -3 7 2 10 11 7 17 1 20 -8 4z"/>
<path d="M1857 2267 c-13 -34 -17 -104 -8 -132 10 -28 10 -27 5 10 -3 23 -1
61 5 85 10 44 9 64 -2 37z"/>
<path d="M1912 2200 c0 -19 2 -27 5 -17 2 9 2 25 0 35 -3 9 -5 1 -5 -18z"/>
<path d="M2002 2210 c0 -14 2 -19 5 -12 2 6 2 18 0 25 -3 6 -5 1 -5 -13z"/>
<path d="M2190 2201 c0 -34 -27 -90 -66 -138 -19 -24 -31 -43 -25 -43 16 0 90
119 97 156 3 19 4 38 0 41 -3 4 -6 -4 -6 -16z"/>
<path d="M1986 2141 c-3 -21 -9 -46 -12 -55 -3 -9 -2 -16 4 -16 6 0 13 23 17
51 8 59 1 78 -9 20z"/>
<path d="M2121 2154 c0 -11 3 -14 6 -6 3 7 2 16 -1 19 -3 4 -6 -2 -5 -13z"/>
<path d="M1902 2140 c0 -14 2 -19 5 -12 2 6 2 18 0 25 -3 6 -5 1 -5 -13z"/>
<path d="M2101 2104 c-6 -15 -9 -29 -7 -32 3 -2 10 8 16 23 14 36 7 43 -9 9z"/>
<path d="M2041 2094 c0 -11 3 -14 6 -6 3 7 2 16 -1 19 -3 4 -6 -2 -5 -13z"/>
<path d="M1450 1946 c0 -3 9 -10 20 -16 11 -6 20 -8 20 -6 0 3 -9 10 -20 16
-11 6 -20 8 -20 6z"/>
<path d="M1520 1906 c0 -2 7 -7 16 -10 8 -3 12 -2 9 4 -6 10 -25 14 -25 6z"/>
<path d="M1420 1816 c0 -2 8 -10 18 -17 15 -13 16 -12 3 4 -13 16 -21 21 -21
13z"/>
<path d="M1475 1760 c3 -5 8 -10 11 -10 2 0 4 5 4 10 0 6 -5 10 -11 10 -5 0
-7 -4 -4 -10z"/>
</g>
</svg>
