<?xml version="1.0" standalone="no"?>
<!DOCTYPE svg PUBLIC "-//W3C//DTD SVG 20010904//EN"
 "http://www.w3.org/TR/2001/REC-SVG-20010904/DTD/svg10.dtd">
<svg version="1.0" xmlns="http://www.w3.org/2000/svg"
 width="627.000000pt" height="295.000000pt" viewBox="0 0 627.000000 295.000000"
 preserveAspectRatio="xMidYMid meet">

<g transform="translate(0.000000,295.000000) scale(0.100000,-0.100000)"
fill="#000000" stroke="none">
<path d="M4064 2823 c-14 -16 -40 -48 -58 -73 -59 -83 -166 -131 -346 -155
-151 -20 -212 -45 -333 -138 -25 -19 -77 -45 -114 -57 -205 -68 -319 -193
-370 -406 -14 -60 -33 -127 -42 -149 -10 -26 -16 -70 -17 -125 0 -47 -6 -148
-13 -224 -12 -125 -12 -142 3 -173 15 -32 15 -40 -4 -133 -23 -112 -24 -131
-7 -180 11 -32 10 -40 -19 -96 -43 -84 -66 -192 -62 -293 l3 -82 -40 -10 c-79
-21 -217 -198 -240 -308 -11 -54 13 -119 65 -173 37 -38 53 -48 79 -48 l33 0
-58 52 c-95 87 -106 144 -49 255 45 86 103 155 152 178 47 22 162 22 229 -1
25 -8 55 -14 64 -11 12 3 26 -6 39 -24 l21 -28 -27 -53 c-15 -29 -32 -56 -38
-60 -6 -5 -5 -8 3 -8 7 0 12 -13 12 -29 0 -16 17 -63 38 -105 l38 -76 -25 -24
c-14 -14 -46 -34 -71 -45 l-45 -20 41 0 c31 -1 52 7 83 30 l42 30 48 -30 c46
-30 51 -31 164 -31 93 0 127 4 171 21 57 21 76 19 76 -7 0 -8 5 -14 11 -14 7
0 8 11 4 30 -5 25 -1 37 28 71 20 22 48 67 63 98 39 81 73 96 214 95 182 -2
291 -53 350 -166 25 -47 25 -46 -5 -40 -31 5 -59 -18 -74 -59 -9 -27 -8 -29
15 -29 13 0 24 6 24 13 0 7 7 22 15 33 15 19 15 19 30 -1 9 -11 13 -25 11 -32
-4 -9 4 -13 24 -13 26 0 30 4 30 28 0 40 -62 162 -101 199 -64 60 -194 102
-324 104 l-50 0 55 25 c30 14 83 32 119 41 60 15 65 15 95 -2 40 -24 94 -65
176 -136 55 -47 191 -138 260 -174 16 -8 10 -14 -43 -47 l-62 -38 42 0 c24 0
56 9 75 20 29 17 51 20 159 19 167 -1 253 21 331 86 20 17 45 24 105 29 90 8
196 46 248 89 19 16 67 71 105 123 55 73 85 104 138 138 90 58 106 78 147 177
32 77 42 92 134 179 105 101 128 137 182 283 16 44 44 107 61 138 38 72 131
186 164 201 15 7 24 20 24 35 0 31 -37 31 -102 -2 -58 -29 -171 -48 -214 -36
-16 4 -58 23 -94 41 -69 35 -126 43 -205 27 -34 -7 -45 -5 -65 13 -22 20 -32
21 -95 15 -64 -6 -68 -5 -49 9 28 20 378 186 393 186 6 0 11 7 11 15 0 8 -4
15 -10 15 -12 0 -219 -90 -389 -169 -165 -77 -236 -94 -461 -111 -224 -17
-364 -54 -445 -115 -68 -53 -91 -61 -235 -88 -150 -29 -198 -43 -277 -87 l-55
-29 7 42 c12 68 21 84 78 125 110 82 133 130 123 261 -10 122 -10 118 26 196
29 62 33 80 33 156 0 78 -3 91 -34 150 -80 149 -76 135 -57 194 19 62 15 88
-25 160 -80 143 -90 224 -39 297 45 64 24 96 -26 41z m-29 -180 c3 -21 27 -84
52 -141 35 -80 44 -109 39 -135 -3 -17 -9 -49 -12 -69 -9 -54 -75 -112 -151
-133 -32 -9 -89 -32 -128 -50 -38 -18 -78 -35 -87 -39 -24 -7 -23 -36 1 -36
11 0 41 13 68 30 26 16 93 41 147 55 109 28 111 29 143 57 l21 20 39 -69 c36
-64 38 -73 38 -153 0 -85 0 -85 -38 -123 -31 -32 -58 -45 -168 -81 -82 -27
-140 -53 -157 -69 -32 -29 -100 -65 -157 -82 -28 -9 -41 -18 -43 -34 -5 -31
16 -27 108 19 44 22 87 40 97 40 9 0 33 11 52 25 38 26 132 54 195 58 l39 2
14 -70 c24 -117 1 -189 -77 -242 -22 -16 -73 -54 -113 -86 -85 -68 -164 -97
-333 -122 -59 -9 -110 -18 -113 -21 -15 -15 25 -13 171 6 120 15 176 27 213
45 27 13 51 22 53 20 2 -2 -1 -28 -8 -58 -10 -49 -19 -62 -85 -126 -76 -74
-149 -115 -225 -127 -24 -4 -40 -12 -40 -20 0 -15 36 -11 105 12 21 7 41 12
42 10 2 -2 -14 -23 -35 -47 -21 -24 -68 -83 -105 -131 -38 -49 -70 -88 -71
-88 -2 0 0 17 5 38 5 20 9 66 9 102 0 54 -5 74 -30 116 -35 62 -79 91 -159
106 -68 13 -81 29 -81 105 0 66 87 287 173 441 39 70 112 222 163 337 137 313
245 543 287 608 34 53 112 137 128 137 4 0 10 -17 14 -37z m-187 -115 c-46
-77 -79 -141 -193 -382 l-43 -88 -11 53 c-7 30 -29 88 -50 129 -44 86 -91 211
-91 241 0 30 74 58 183 70 96 10 197 32 225 49 32 18 30 9 -20 -72z m-402
-140 c15 -46 47 -123 71 -172 30 -62 43 -102 43 -131 0 -23 5 -56 11 -73 9
-26 5 -43 -31 -129 -34 -80 -101 -214 -116 -232 -2 -2 -14 9 -26 24 -12 16
-45 53 -72 83 -28 30 -62 71 -75 91 -14 20 -39 54 -57 76 -18 23 -41 61 -52
85 -11 25 -30 62 -43 82 -13 20 -35 55 -49 77 -13 23 -30 41 -37 41 -21 0 -15
14 20 47 33 33 161 103 187 103 25 0 112 45 154 79 21 17 40 31 42 31 1 0 15
-37 30 -82z m-448 -238 c16 0 92 -108 107 -150 8 -22 56 -102 108 -178 108
-157 123 -184 136 -243 8 -36 7 -49 -8 -74 -10 -16 -33 -70 -51 -120 -17 -49
-38 -105 -46 -124 l-15 -34 -40 39 c-23 21 -54 58 -70 80 -16 23 -64 71 -107
108 -44 36 -85 79 -92 96 -12 29 -50 43 -50 19 0 -17 87 -114 128 -143 21 -14
60 -58 87 -97 28 -39 72 -101 99 -137 44 -62 66 -101 66 -121 0 -5 -22 -11
-49 -14 -27 -3 -68 -15 -91 -27 -42 -21 -136 -108 -155 -143 -9 -17 -16 -14
-71 35 -34 29 -66 67 -72 84 -16 42 -15 118 3 184 19 71 19 109 -1 156 -10 23
-13 49 -9 68 10 50 27 244 30 341 3 142 55 319 118 409 20 28 21 28 28 7 5
-11 12 -21 17 -21z m2537 -616 c12 -5 6 -17 -34 -59 -30 -31 -71 -94 -103
-156 -63 -123 -65 -129 -42 -129 22 0 75 60 123 140 49 81 71 102 146 137 80
37 196 38 265 2 35 -18 61 -23 117 -24 60 0 69 -2 60 -14 -15 -18 -73 -43
-217 -93 -128 -45 -236 -94 -292 -132 -21 -14 -70 -39 -110 -57 -40 -17 -147
-71 -238 -120 -91 -49 -177 -89 -191 -89 -34 0 -137 -36 -169 -58 -14 -10 -49
-28 -79 -41 -30 -13 -100 -52 -155 -87 -66 -41 -132 -73 -191 -92 -49 -16
-118 -44 -153 -61 -34 -18 -113 -50 -175 -71 -148 -51 -241 -87 -279 -106 -53
-28 -21 2 120 110 75 57 194 156 264 218 70 62 172 141 228 176 94 58 359 187
368 178 8 -8 -41 -125 -59 -142 -21 -19 -26 -48 -6 -42 6 3 28 35 47 72 26 51
63 97 151 184 153 154 224 209 380 295 81 45 188 74 224 61z m-410 -64 c-34
-37 -188 -132 -341 -210 -156 -80 -312 -145 -321 -136 -11 10 80 204 111 238
53 58 164 87 441 117 134 14 131 14 110 -9z m969 -102 c-4 -7 -18 -30 -31 -51
-13 -21 -46 -92 -72 -157 -65 -160 -95 -210 -126 -210 -26 0 -100 58 -198 155
l-58 57 28 17 c54 31 189 90 316 136 70 26 130 52 133 56 8 14 16 10 8 -3z
m-1134 -79 c-21 -38 -145 -119 -280 -180 -240 -110 -355 -184 -513 -331 -108
-100 -523 -438 -538 -438 -5 0 -9 14 -9 31 0 18 -5 49 -11 70 -11 35 -10 41
14 73 15 19 62 62 104 97 43 34 91 77 107 96 53 63 185 161 298 221 62 32 207
97 322 142 114 46 276 118 360 161 83 43 152 78 154 78 1 1 -2 -8 -8 -20z
m-492 -31 c2 -24 -7 -57 -26 -100 l-29 -63 -84 -34 c-46 -19 -123 -54 -171
-78 -48 -23 -90 -43 -92 -43 -17 0 68 185 112 243 45 60 74 76 177 98 104 22
109 22 113 -23z m-351 -75 c-3 -21 -25 -89 -49 -151 -44 -112 -44 -113 -118
-173 -41 -34 -111 -96 -155 -138 -44 -43 -101 -91 -126 -108 -25 -17 -51 -38
-58 -47 -19 -23 -40 -20 -63 9 -10 13 -22 24 -26 24 -39 -6 -6 37 143 186 28
27 78 86 112 130 107 141 286 302 337 305 4 0 6 -17 3 -37z m1455 -90 c41 -5
61 -17 148 -89 56 -46 106 -84 112 -84 6 0 -20 -33 -59 -72 -56 -58 -75 -88
-98 -146 -16 -40 -32 -75 -37 -78 -16 -10 -83 40 -192 144 -60 57 -136 122
-168 144 -32 23 -58 44 -58 49 0 13 274 149 290 143 8 -3 36 -8 62 -11z
m-2222 -84 c61 -13 106 -49 131 -104 23 -49 23 -90 3 -175 -21 -92 -29 -98
-117 -93 -87 6 -203 -17 -255 -49 -20 -13 -41 -21 -47 -20 -5 2 -7 0 -3 -3 8
-8 -50 -95 -63 -95 -13 0 -38 64 -44 115 -7 53 7 181 27 249 19 65 117 152
198 177 37 11 113 10 170 -2z m-507 -105 c70 -79 71 -84 72 -242 l0 -144 -30
6 c-16 3 -60 8 -97 12 l-66 7 -7 58 c-9 81 10 184 50 268 19 39 37 71 40 71 3
0 20 -16 38 -36z m2369 -34 c46 -22 124 -70 173 -107 126 -93 199 -146 221
-159 17 -10 15 -14 -24 -40 -23 -16 -60 -41 -82 -57 -22 -15 -61 -53 -85 -85
-42 -53 -48 -58 -78 -54 -41 6 -69 27 -204 155 -60 57 -136 124 -169 149 -32
25 -67 60 -77 76 -20 36 -21 35 69 71 28 10 77 35 109 55 33 20 61 36 62 36 1
0 39 -18 85 -40z m-276 -215 c36 -26 115 -94 176 -152 134 -127 163 -149 208
-161 l35 -9 -41 -40 c-23 -22 -62 -50 -87 -62 -45 -22 -175 -51 -228 -51 -16
0 -40 -7 -54 -16 -21 -14 -25 -14 -46 3 -69 56 -132 121 -216 225 -112 139
-136 161 -203 183 -56 19 -57 23 -8 36 76 20 185 61 228 87 25 15 52 30 60 33
24 10 103 -25 176 -76z m-1512 -51 c9 -3 14 -10 11 -14 -3 -5 3 -6 14 -3 13 3
28 -8 51 -37 81 -102 104 -242 55 -334 -60 -113 -99 -142 -233 -177 -66 -17
-84 -18 -127 -8 -91 21 -156 77 -201 173 -35 76 -31 106 27 212 61 111 100
151 171 175 52 18 198 26 232 13z m1073 -105 c68 -33 94 -53 145 -111 35 -40
103 -114 152 -165 54 -55 86 -97 80 -102 -26 -24 -90 -34 -226 -37 -82 -1
-148 1 -148 6 0 4 -33 24 -72 45 -97 50 -196 126 -291 222 l-78 79 58 27 c170
78 196 87 248 81 29 -3 85 -22 132 -45z"/>
<path d="M3230 996 c-19 -7 -42 -25 -50 -40 -14 -26 -14 -28 13 -52 38 -32 99
-33 121 -2 23 33 20 74 -6 92 -26 19 -31 19 -78 2z m76 -37 c12 -20 -17 -49
-49 -49 -41 0 -60 13 -55 36 5 28 88 39 104 13z"/>
<path d="M3193 700 c0 -25 2 -35 4 -22 2 12 2 32 0 45 -2 12 -4 2 -4 -23z"/>
<path d="M3411 684 c0 -11 3 -14 6 -6 3 7 2 16 -1 19 -3 4 -6 -2 -5 -13z"/>
<path d="M3091 634 c0 -11 3 -14 6 -6 3 7 2 16 -1 19 -3 4 -6 -2 -5 -13z"/>
<path d="M3292 525 c-18 -15 -32 -32 -32 -39 0 -20 52 -63 93 -76 32 -10 42
-9 62 4 28 18 40 54 31 90 -7 27 -16 32 -78 41 -39 6 -48 3 -76 -20z m119 -21
c13 -8 11 -38 -3 -52 -17 -17 -55 -15 -89 5 -32 19 -36 32 -16 52 12 12 86 9
108 -5z"/>
<path d="M3208 483 c6 -2 18 -2 25 0 6 3 1 5 -13 5 -14 0 -19 -2 -12 -5z"/>
<path d="M3208 433 c6 -2 18 -2 25 0 6 3 1 5 -13 5 -14 0 -19 -2 -12 -5z"/>
<path d="M3488 428 c5 -5 16 -8 23 -6 8 3 3 7 -10 11 -17 4 -21 3 -13 -5z"/>
<path d="M3060 415 c-7 -9 -11 -17 -9 -20 3 -2 10 5 17 15 14 24 10 26 -8 5z"/>
<path d="M3540 381 c0 -17 4 -32 8 -35 4 -2 6 11 4 30 -5 42 -12 45 -12 5z"/>
<path d="M3210 390 c0 -5 5 -10 11 -10 5 0 7 5 4 10 -3 6 -8 10 -11 10 -2 0
-4 -4 -4 -10z"/>
<path d="M3254 373 c-30 -42 -36 -53 -27 -53 4 0 18 18 31 40 26 46 24 52 -4
13z"/>
<path d="M3074 358 l-19 -23 23 19 c12 11 22 21 22 23 0 8 -8 2 -26 -19z"/>
<path d="M3296 355 c-9 -26 -7 -32 5 -12 6 10 9 21 6 23 -2 3 -7 -2 -11 -11z"/>
<path d="M3522 345 c0 -16 2 -22 5 -12 2 9 2 23 0 30 -3 6 -5 -1 -5 -18z"/>
<path d="M3340 350 c0 -5 5 -10 10 -10 6 0 10 5 10 10 0 6 -4 10 -10 10 -5 0
-10 -4 -10 -10z"/>
<path d="M3400 340 c0 -5 5 -10 10 -10 6 0 10 5 10 10 0 6 -4 10 -10 10 -5 0
-10 -4 -10 -10z"/>
<path d="M3040 310 c-6 -11 -8 -20 -6 -20 3 0 10 9 16 20 6 11 8 20 6 20 -3 0
-10 -9 -16 -20z"/>
<path d="M3532 280 c-1 -19 -5 -46 -8 -60 -5 -21 -4 -23 6 -7 6 9 9 36 7 60
-3 39 -4 39 -5 7z"/>
<path d="M3046 263 c-6 -14 -5 -15 5 -6 7 7 10 15 7 18 -3 3 -9 -2 -12 -12z"/>
<path d="M3412 200 c-1 -30 -5 -66 -8 -80 -5 -21 -4 -22 6 -8 6 10 9 45 7 80
l-3 63 -2 -55z"/>
<path d="M3447 188 c-3 -24 -9 -54 -13 -67 -5 -16 -4 -22 4 -17 11 7 28 113
20 122 -3 2 -8 -15 -11 -38z"/>
<path d="M3478 190 c-2 -22 0 -40 4 -40 5 0 8 18 8 40 0 22 -2 40 -4 40 -2 0
-6 -18 -8 -40z"/>
<path d="M3347 130 c-3 -11 -1 -20 4 -20 5 0 9 9 9 20 0 11 -2 20 -4 20 -2 0
-6 -9 -9 -20z"/>
<path d="M3271 104 c0 -11 3 -14 6 -6 3 7 2 16 -1 19 -3 4 -6 -2 -5 -13z"/>
<path d="M443 1078 c0 -18 -7 -60 -16 -93 -9 -33 -16 -73 -17 -88 0 -41 -25
-84 -91 -155 -42 -46 -63 -80 -78 -124 -11 -33 -39 -85 -61 -114 -52 -69 -60
-92 -60 -169 0 -77 -6 -95 -58 -164 -41 -54 -59 -112 -47 -151 11 -36 21 -22
21 29 -1 41 5 56 32 92 55 73 72 117 72 192 0 73 10 101 64 171 17 23 42 71
55 105 17 46 40 81 83 128 63 68 87 112 89 165 1 18 6 -16 10 -77 5 -60 16
-148 26 -195 12 -55 17 -115 15 -172 l-3 -87 -45 35 c-25 19 -50 34 -55 34
-17 0 -9 -19 11 -25 11 -3 35 -25 55 -47 26 -31 35 -51 35 -78 0 -20 9 -85 20
-145 11 -60 20 -114 20 -119 0 -6 -27 19 -59 55 -63 70 -166 147 -179 134 -4
-4 2 -12 12 -19 47 -28 137 -109 167 -151 32 -44 33 -45 89 -45 l57 0 -29 118
c-21 87 -31 159 -38 282 -5 91 -19 208 -30 260 -11 52 -23 129 -25 170 l-6 75
32 -60 c17 -33 55 -89 83 -125 29 -36 66 -86 83 -111 28 -43 30 -50 22 -90
-19 -92 -22 -119 -11 -119 12 0 45 60 55 100 14 53 22 56 66 27 54 -36 74 -69
82 -136 5 -46 1 -72 -23 -147 -16 -50 -44 -117 -63 -149 -37 -60 -43 -85 -22
-85 15 0 90 165 111 244 8 32 18 62 23 67 9 9 107 -28 149 -56 28 -18 54 -70
54 -109 0 -14 -16 -55 -36 -91 -27 -50 -32 -65 -20 -65 8 0 24 19 34 44 11 24
24 46 30 50 14 8 59 -30 77 -65 13 -25 45 -41 45 -23 0 12 -44 70 -76 101 -27
25 -34 40 -34 70 0 76 -34 106 -192 171 -22 9 -28 18 -28 44 0 78 -75 161
-173 190 -24 7 -43 21 -52 37 -7 14 -37 56 -67 92 -73 89 -104 144 -138 245
-20 58 -27 95 -23 119 4 27 2 35 -9 35 -10 0 -15 -11 -15 -32z"/>
<path d="M2800 410 c-20 -6 -21 -8 -5 -8 11 0 31 4 45 8 20 6 21 8 5 8 -11 0
-31 -4 -45 -8z"/>
<path d="M2748 393 c7 -3 16 -2 19 1 4 3 -2 6 -13 5 -11 0 -14 -3 -6 -6z"/>
<path d="M2705 380 c-3 -6 1 -7 9 -4 18 7 21 14 7 14 -6 0 -13 -4 -16 -10z"/>
<path d="M2883 363 c9 -2 23 -2 30 0 6 3 -1 5 -18 5 -16 0 -22 -2 -12 -5z"/>
<path d="M2828 353 c7 -3 16 -2 19 1 4 3 -2 6 -13 5 -11 0 -14 -3 -6 -6z"/>
<path d="M2649 273 c-13 -16 -12 -17 4 -4 16 13 21 21 13 21 -2 0 -10 -8 -17
-17z"/>
<path d="M2496 234 c-19 -21 -24 -35 -19 -54 16 -67 55 -107 93 -95 54 17 66
78 27 136 -30 45 -66 50 -101 13z m74 -45 c16 -29 8 -63 -14 -67 -23 -5 -46
23 -46 54 0 36 43 46 60 13z"/>
<path d="M4090 140 c0 -5 5 -10 10 -10 6 0 10 5 10 10 0 6 -4 10 -10 10 -5 0
-10 -4 -10 -10z"/>
<path d="M2882 106 c-49 -35 -52 -43 -7 -16 47 27 63 40 50 40 -6 -1 -25 -11
-43 -24z"/>
<path d="M2924 78 l-29 -33 33 29 c17 17 32 31 32 33 0 8 -8 1 -36 -29z"/>
</g>
</svg>
