<?xml version="1.0" standalone="no"?>
<!DOCTYPE svg PUBLIC "-//W3C//DTD SVG 20010904//EN"
 "http://www.w3.org/TR/2001/REC-SVG-20010904/DTD/svg10.dtd">
<svg version="1.0" xmlns="http://www.w3.org/2000/svg"
 width="642.000000pt" height="590.000000pt" viewBox="0 0 642.000000 590.000000"
 preserveAspectRatio="xMidYMid meet">

<g transform="translate(0.000000,590.000000) scale(0.100000,-0.100000)"
fill="#000000" stroke="none">
<path d="M4134 5773 c-14 -16 -40 -48 -58 -73 -59 -83 -166 -131 -346 -155
-151 -20 -212 -45 -333 -138 -25 -19 -77 -45 -114 -57 -205 -68 -319 -193
-370 -406 -14 -60 -33 -127 -42 -149 -10 -26 -16 -70 -17 -125 0 -47 -6 -148
-13 -224 -12 -125 -12 -142 3 -173 15 -32 15 -40 -4 -133 -23 -112 -24 -131
-7 -180 11 -32 10 -40 -19 -96 -43 -84 -66 -192 -62 -293 l3 -82 -40 -10 c-79
-21 -217 -198 -240 -308 -20 -92 62 -202 200 -267 67 -32 75 -39 75 -64 0 -58
-111 -167 -260 -255 -68 -40 -146 -98 -167 -123 -10 -12 -14 -8 -28 24 -42
101 -115 149 -214 142 -46 -3 -72 -13 -141 -55 -103 -62 -149 -109 -188 -188
-33 -67 -62 -156 -62 -192 0 -28 -11 -29 -35 -3 -26 29 -81 43 -141 37 -49 -5
-56 -3 -98 30 -81 63 -135 166 -158 303 -10 59 -9 73 6 114 17 43 20 46 55 46
55 0 97 33 126 99 14 31 17 33 52 26 20 -4 54 -15 74 -25 53 -28 152 -140 188
-215 18 -38 37 -65 46 -65 16 0 20 15 6 24 -5 3 -20 29 -34 58 -44 91 -127
182 -201 218 -57 28 -73 32 -118 27 -29 -3 -63 -8 -75 -12 -18 -6 -23 -3 -23
10 0 30 -63 137 -107 183 -35 35 -43 51 -43 80 0 75 -34 105 -193 170 -21 9
-27 18 -27 44 0 78 -75 161 -173 190 -24 7 -43 21 -52 37 -7 14 -37 56 -67 92
-73 89 -104 144 -138 245 -20 58 -27 95 -23 119 4 27 2 35 -9 35 -10 0 -15
-11 -15 -32 0 -18 -7 -60 -16 -93 -9 -33 -16 -73 -17 -88 0 -41 -25 -84 -91
-155 -42 -46 -63 -80 -78 -124 -11 -33 -39 -85 -61 -114 -52 -69 -60 -92 -60
-169 0 -77 -6 -95 -58 -164 -50 -66 -59 -111 -38 -182 11 -37 14 -72 10 -114
-8 -84 15 -174 77 -294 32 -64 53 -120 58 -155 6 -46 16 -65 64 -124 31 -38
84 -94 117 -123 34 -30 87 -76 117 -102 76 -67 306 -238 373 -277 97 -57 151
-103 175 -150 30 -60 52 -131 66 -213 l11 -68 -104 -107 c-128 -132 -160 -172
-233 -292 -32 -52 -101 -153 -155 -225 -130 -173 -177 -248 -250 -395 -62
-127 -72 -164 -44 -158 10 2 25 28 38 64 46 126 179 343 318 516 29 37 88 123
130 190 87 140 271 349 406 461 44 37 118 111 164 164 54 62 97 102 123 114
40 19 40 19 55 -3 41 -60 64 -79 116 -94 54 -15 76 -14 181 12 14 4 23 2 23
-5 0 -6 -5 -10 -12 -8 -8 1 -13 -17 -16 -58 -1 -33 -9 -80 -17 -104 -8 -25
-15 -75 -15 -113 l0 -68 -92 5 c-90 5 -236 -8 -291 -25 l-28 -9 28 33 c15 18
75 88 133 155 58 67 105 127 105 134 0 22 -30 18 -45 -7 -8 -13 -87 -102 -176
-198 -325 -350 -467 -514 -537 -617 -39 -58 -103 -144 -144 -190 -82 -94 -208
-286 -225 -344 -9 -28 -8 -41 0 -49 16 -16 32 1 75 82 61 118 126 214 197 294
39 44 99 123 134 177 69 104 418 499 441 499 8 0 17 -4 20 -10 3 -5 25 -10 48
-10 23 -1 52 -6 64 -13 12 -7 73 -66 136 -133 202 -211 333 -283 587 -320 58
-9 188 -33 289 -55 225 -48 259 -49 303 -10 75 65 128 75 314 59 117 -9 137
-9 184 7 63 21 121 75 167 155 17 30 60 89 96 131 59 68 74 80 143 109 102 42
120 55 149 104 26 44 65 158 65 191 1 52 102 205 135 205 21 0 53 61 70 133
27 118 74 225 109 252 46 35 99 55 146 55 45 0 110 23 110 39 0 14 -27 14 -35
1 -3 -5 -31 -10 -62 -10 -36 0 -87 -11 -145 -31 -87 -29 -92 -30 -161 -19 -40
7 -93 21 -118 31 -80 31 -155 34 -247 10 -107 -28 -122 -27 -194 11 -56 29
-68 31 -167 32 -102 1 -109 0 -143 -26 -32 -24 -38 -26 -79 -16 -24 5 -78 10
-119 11 -86 1 -133 -16 -228 -83 -55 -38 -62 -40 -127 -39 -90 1 -99 5 -103
54 -8 104 -63 189 -149 231 l-55 27 98 96 c55 53 128 116 164 141 87 61 345
313 336 329 -5 7 -56 -34 -149 -121 -79 -73 -185 -165 -237 -205 -105 -79
-211 -184 -315 -313 -38 -47 -97 -115 -132 -151 l-62 -66 -22 23 c-29 31 -111
65 -173 71 -85 8 -228 -35 -299 -91 -30 -23 -76 -145 -77 -200 l0 -48 -38 7
c-57 10 -131 55 -171 103 -87 104 -103 183 -52 263 38 60 66 83 135 115 46 21
68 25 104 21 42 -4 53 -12 97 -61 67 -75 79 -74 70 8 -12 108 45 257 127 332
43 40 157 114 176 114 5 0 12 -18 16 -40 3 -22 16 -50 27 -61 40 -40 129 -3
129 52 0 10 4 19 9 19 18 0 41 -43 35 -67 -5 -17 -2 -23 10 -23 19 0 56 -114
56 -176 0 -94 -73 -231 -139 -260 -60 -26 -55 -46 6 -23 47 17 83 60 125 144
37 76 39 84 35 155 -2 41 -7 83 -11 93 -6 12 -4 17 6 17 8 0 32 18 53 41 22
22 85 68 140 102 123 76 214 165 246 241 21 52 26 57 73 72 65 21 181 79 224
111 l33 25 47 -30 c94 -59 189 -64 321 -17 38 14 71 25 74 25 3 0 15 -19 25
-42 11 -24 34 -63 53 -88 35 -48 44 -88 41 -194 -2 -104 -84 -236 -182 -295
-46 -28 -56 -26 -63 7 -7 36 -41 79 -80 98 -30 16 -126 24 -157 14 -10 -3 -14
1 -12 13 2 9 -2 16 -9 15 -17 -4 -29 66 -32 192 -2 98 0 108 26 154 31 56 33
66 12 66 -25 0 -72 -112 -80 -188 -8 -79 8 -209 32 -259 9 -19 38 -59 65 -88
86 -94 195 -117 306 -63 24 11 44 19 45 17 23 -37 145 -161 171 -173 44 -21
155 -21 224 -1 171 51 225 253 122 459 -22 43 -40 79 -40 81 0 1 25 5 57 9 31
4 73 16 94 28 40 22 90 78 110 121 10 22 16 24 54 19 54 -6 103 10 185 59 l66
39 124 -1 c168 -1 254 21 332 86 20 17 45 24 105 29 90 8 196 46 248 89 19 16
67 71 105 123 55 73 85 104 138 138 90 58 106 78 147 177 32 77 42 92 134 179
105 101 128 137 182 283 61 166 161 309 245 349 24 12 44 25 44 29 0 4 -20 11
-44 14 -36 6 -54 2 -96 -19 -60 -30 -173 -50 -216 -37 -16 4 -58 23 -94 41
-69 35 -126 43 -205 27 -34 -7 -45 -5 -65 13 -22 20 -32 21 -95 15 -64 -6 -68
-5 -49 9 28 20 378 186 393 186 6 0 11 7 11 15 0 8 -4 15 -10 15 -12 0 -219
-90 -389 -169 -165 -77 -236 -94 -461 -111 -224 -17 -364 -54 -445 -115 -68
-53 -91 -61 -235 -88 -150 -29 -198 -43 -277 -87 l-55 -29 7 42 c12 68 21 84
78 125 110 82 133 130 123 261 -10 122 -10 118 26 196 29 62 33 80 33 156 0
78 -3 91 -34 150 -80 149 -76 135 -57 194 19 62 15 88 -25 160 -80 143 -90
224 -39 297 45 64 24 96 -26 41z m-29 -180 c3 -21 27 -84 52 -141 35 -80 44
-109 39 -135 -3 -17 -9 -49 -12 -69 -9 -54 -75 -112 -151 -133 -32 -9 -89 -32
-128 -50 -38 -18 -78 -35 -87 -39 -24 -7 -23 -36 1 -36 11 0 41 13 68 30 26
16 93 41 147 55 109 28 111 29 143 57 l21 20 39 -69 c36 -64 38 -73 38 -153 0
-85 0 -85 -38 -123 -31 -32 -58 -45 -168 -81 -82 -27 -140 -53 -157 -69 -32
-29 -100 -65 -157 -82 -28 -9 -41 -18 -43 -34 -5 -31 16 -27 108 19 44 22 87
40 97 40 9 0 33 11 52 25 38 26 132 54 195 58 l39 2 14 -70 c24 -117 1 -189
-77 -242 -22 -16 -73 -54 -113 -86 -85 -68 -164 -97 -333 -122 -59 -9 -110
-18 -113 -21 -15 -15 25 -13 171 6 120 15 176 27 213 45 27 13 51 22 53 20 2
-2 -1 -28 -8 -58 -10 -49 -19 -62 -85 -126 -76 -74 -149 -115 -225 -127 -24
-4 -40 -12 -40 -20 0 -15 36 -11 105 12 21 7 41 12 42 10 2 -2 -14 -23 -35
-47 -21 -24 -68 -83 -105 -131 -38 -49 -70 -88 -71 -88 -2 0 0 17 5 38 5 20 9
66 9 102 0 54 -5 74 -30 116 -35 62 -79 91 -159 106 -68 13 -81 29 -81 105 0
66 87 287 173 441 39 70 112 222 163 337 137 313 245 543 287 608 34 53 112
137 128 137 4 0 10 -17 14 -37z m-187 -115 c-46 -77 -79 -141 -193 -382 l-43
-88 -11 53 c-7 30 -29 88 -50 129 -44 86 -91 211 -91 241 0 30 74 58 183 70
96 10 197 32 225 49 32 18 30 9 -20 -72z m-402 -140 c15 -46 47 -123 71 -172
30 -62 43 -102 43 -131 0 -23 5 -56 11 -73 9 -26 5 -43 -31 -129 -34 -80 -101
-214 -116 -232 -2 -2 -14 9 -26 24 -12 16 -45 53 -72 83 -28 30 -62 71 -75 91
-14 20 -39 54 -57 76 -18 23 -41 61 -52 85 -11 25 -30 62 -43 82 -13 20 -35
55 -49 77 -13 23 -30 41 -37 41 -21 0 -15 14 20 47 33 33 161 103 187 103 25
0 112 45 154 79 21 17 40 31 42 31 1 0 15 -37 30 -82z m-448 -238 c16 0 92
-108 107 -150 8 -22 56 -102 108 -178 108 -157 123 -184 136 -243 8 -36 7 -49
-8 -74 -10 -16 -33 -70 -51 -120 -17 -49 -38 -105 -46 -124 l-15 -34 -40 39
c-23 21 -54 58 -70 80 -16 23 -64 71 -107 108 -44 36 -85 79 -92 96 -12 29
-50 43 -50 19 0 -17 87 -114 128 -143 21 -14 60 -58 87 -97 28 -39 72 -101 99
-137 44 -62 66 -101 66 -121 0 -5 -22 -11 -49 -14 -27 -3 -68 -15 -91 -27 -42
-21 -136 -108 -155 -143 -9 -17 -16 -14 -71 35 -34 29 -66 67 -72 84 -16 42
-15 118 3 184 19 71 19 109 -1 156 -10 23 -13 49 -9 68 10 50 27 244 30 341 3
142 55 319 118 409 20 28 21 28 28 7 5 -11 12 -21 17 -21z m2537 -616 c12 -5
6 -17 -34 -59 -30 -31 -71 -94 -103 -156 -63 -123 -65 -129 -42 -129 22 0 75
60 123 140 49 81 71 102 146 137 80 37 196 38 265 2 35 -18 61 -23 117 -24 60
0 69 -2 60 -14 -15 -18 -73 -43 -217 -93 -128 -45 -236 -94 -292 -132 -21 -14
-70 -39 -110 -57 -40 -17 -147 -71 -238 -120 -91 -49 -177 -89 -191 -89 -34 0
-137 -36 -169 -58 -14 -10 -49 -28 -79 -41 -30 -13 -100 -52 -155 -87 -66 -41
-132 -73 -191 -92 -49 -16 -118 -44 -153 -61 -34 -18 -113 -50 -175 -71 -148
-51 -241 -87 -279 -106 -53 -28 -21 2 120 110 75 57 194 156 264 218 70 62
172 141 228 176 94 58 359 187 368 178 8 -8 -41 -125 -59 -142 -21 -19 -26
-48 -6 -42 6 3 28 35 47 72 26 51 63 97 151 184 153 154 224 209 380 295 81
45 188 74 224 61z m-410 -64 c-34 -37 -188 -132 -341 -210 -156 -80 -312 -145
-321 -136 -11 10 80 204 111 238 53 58 164 87 441 117 134 14 131 14 110 -9z
m969 -102 c-4 -7 -18 -30 -31 -51 -13 -21 -46 -92 -72 -157 -65 -160 -95 -210
-126 -210 -26 0 -100 58 -198 155 l-58 57 28 17 c54 31 189 90 316 136 70 26
130 52 133 56 8 14 16 10 8 -3z m-1134 -79 c-21 -38 -145 -119 -280 -180 -240
-110 -355 -184 -513 -331 -108 -100 -523 -438 -538 -438 -5 0 -9 14 -9 31 0
18 -5 49 -11 70 -11 35 -10 41 14 73 15 19 62 62 104 97 43 34 91 77 107 96
53 63 185 161 298 221 62 32 207 97 322 142 114 46 276 118 360 161 83 43 152
78 154 78 1 1 -2 -8 -8 -20z m-492 -31 c2 -24 -7 -57 -26 -100 l-29 -63 -84
-34 c-46 -19 -123 -54 -171 -78 -48 -23 -90 -43 -92 -43 -17 0 68 185 112 243
45 60 74 76 177 98 104 22 109 22 113 -23z m-351 -75 c-3 -21 -25 -89 -49
-151 -44 -112 -44 -113 -118 -173 -41 -34 -111 -96 -155 -138 -44 -43 -101
-91 -126 -108 -25 -17 -51 -38 -58 -47 -19 -23 -40 -20 -63 9 -10 13 -22 24
-26 24 -39 -6 -6 37 143 186 28 27 78 86 112 130 107 141 286 302 337 305 4 0
6 -17 3 -37z m1455 -90 c41 -5 61 -17 148 -89 56 -46 106 -84 112 -84 6 0 -20
-33 -59 -72 -56 -58 -75 -88 -98 -146 -16 -40 -32 -75 -37 -78 -16 -10 -83 40
-192 144 -60 57 -136 122 -168 144 -32 23 -58 44 -58 49 0 13 274 149 290 143
8 -3 36 -8 62 -11z m-2222 -84 c61 -13 106 -49 131 -104 23 -49 23 -90 3 -175
-21 -92 -29 -98 -117 -93 -87 6 -203 -17 -255 -49 -20 -13 -41 -21 -47 -20 -5
2 -7 0 -3 -3 8 -8 -50 -95 -63 -95 -13 0 -38 64 -44 115 -7 53 7 181 27 249
19 65 117 152 198 177 37 11 113 10 170 -2z m-507 -105 c70 -79 71 -84 72
-242 l0 -144 -30 6 c-16 3 -60 8 -97 12 l-66 7 -7 58 c-9 81 10 184 50 268 19
39 37 71 40 71 3 0 20 -16 38 -36z m-2376 -274 c12 -55 17 -115 15 -172 l-3
-87 -45 35 c-25 19 -50 34 -55 34 -17 0 -9 -19 11 -25 11 -3 35 -25 55 -47 26
-31 35 -51 35 -78 0 -20 9 -85 20 -145 11 -60 20 -114 20 -119 0 -6 -27 19
-59 55 -63 70 -166 147 -179 134 -4 -4 1 -12 12 -19 56 -33 131 -105 188 -178
51 -65 72 -103 96 -173 30 -84 40 -135 27 -135 -3 0 -41 14 -84 30 -44 17
-103 35 -133 40 -43 7 -99 27 -160 58 -5 2 -8 -3 -8 -11 0 -9 27 -26 68 -42
125 -51 208 -94 277 -145 38 -27 73 -51 77 -52 13 -5 67 -146 103 -268 18 -63
38 -128 44 -143 20 -52 10 -50 -59 9 -30 25 -81 59 -114 75 -34 15 -93 52
-131 81 -96 72 -126 91 -133 83 -4 -4 0 -10 8 -15 8 -5 55 -40 105 -79 49 -39
114 -84 145 -100 30 -16 78 -50 107 -74 29 -25 68 -54 87 -66 25 -16 39 -35
50 -69 9 -26 27 -67 41 -91 31 -53 95 -201 88 -201 -3 0 -22 13 -42 28 -20 16
-70 49 -111 75 -172 107 -486 369 -576 481 -52 66 -64 87 -64 117 0 23 -19 74
-55 148 -68 138 -89 216 -81 295 4 38 1 79 -10 118 -19 74 -13 104 32 163 50
64 64 105 64 180 0 71 11 100 64 169 17 23 42 71 55 105 17 46 40 81 83 128
63 68 87 112 89 165 1 18 6 -16 10 -77 5 -60 16 -148 26 -195z m4745 240 c46
-22 124 -70 173 -107 126 -93 199 -146 221 -159 17 -10 15 -14 -24 -40 -23
-16 -60 -41 -82 -57 -22 -15 -61 -53 -85 -85 -42 -53 -48 -58 -78 -54 -41 6
-69 27 -204 155 -60 57 -136 124 -169 149 -32 25 -67 60 -77 76 -20 36 -21 35
69 71 28 10 77 35 109 55 33 20 61 36 62 36 1 0 39 -18 85 -40z m-4618 -150
c29 -36 66 -86 83 -111 28 -43 30 -50 22 -90 -19 -92 -22 -119 -11 -119 12 0
45 60 55 100 14 53 22 56 66 27 54 -36 74 -69 82 -136 5 -46 1 -72 -23 -147
-16 -50 -44 -117 -63 -149 -37 -60 -43 -85 -22 -85 15 0 90 165 111 244 8 32
18 62 23 67 9 9 107 -28 149 -56 28 -18 54 -70 54 -109 0 -32 -83 -189 -130
-247 -53 -63 -80 -110 -80 -137 0 -32 22 -23 31 12 5 16 29 55 54 87 25 32 64
94 86 138 22 44 44 83 48 86 29 17 131 -134 131 -195 0 -20 -10 -44 -26 -63
-15 -17 -51 -83 -81 -146 -30 -63 -72 -140 -92 -171 -64 -94 -82 -128 -73
-134 5 -3 44 50 88 118 43 68 82 122 87 119 4 -2 7 -14 7 -27 0 -27 38 -143
57 -172 9 -14 12 -37 8 -70 -8 -67 -13 -83 -47 -132 -57 -84 -107 -222 -79
-222 6 0 11 6 11 14 0 8 6 21 13 28 6 7 27 36 46 63 64 94 164 186 182 168 7
-7 -7 -21 -41 -43 -81 -52 -132 -132 -133 -210 -2 -98 102 -235 208 -275 l45
-18 -47 -56 c-90 -107 -141 -160 -211 -220 -38 -34 -73 -61 -76 -61 -13 0 -5
38 9 44 8 3 15 16 15 29 0 13 5 28 11 34 8 8 6 30 -6 81 -21 86 -11 141 41
228 34 57 40 74 27 74 -25 -1 -102 -153 -104 -204 0 -22 -144 262 -223 439
-66 148 -171 474 -196 605 -12 63 -31 142 -42 175 -54 162 -90 348 -99 510 -5
89 -17 202 -29 255 -11 52 -23 129 -25 170 l-6 75 32 -60 c17 -33 55 -89 83
-125z m4342 -65 c36 -26 115 -94 176 -152 134 -127 163 -149 208 -161 l35 -9
-41 -40 c-23 -22 -62 -50 -87 -62 -45 -22 -175 -51 -228 -51 -16 0 -40 -7 -54
-16 -21 -14 -25 -14 -46 3 -69 56 -132 121 -216 225 -112 139 -136 161 -203
183 -56 19 -57 23 -8 36 76 20 185 61 228 87 25 15 52 30 60 33 24 10 103 -25
176 -76z m-1512 -51 c9 -3 14 -10 11 -14 -3 -5 3 -6 14 -3 13 3 28 -8 51 -37
81 -102 104 -242 55 -334 -60 -113 -99 -142 -233 -177 -66 -17 -84 -18 -127
-8 -91 21 -156 77 -201 173 -35 76 -31 106 27 212 61 111 100 151 171 175 52
18 198 26 232 13z m1073 -105 c68 -33 94 -53 145 -111 35 -40 103 -114 152
-165 54 -55 86 -97 80 -102 -26 -24 -90 -34 -226 -37 -82 -1 -148 1 -148 6 0
4 -33 24 -72 45 -97 50 -196 126 -291 222 l-78 79 58 27 c170 78 196 87 248
81 29 -3 85 -22 132 -45z m-1640 -16 c29 -8 59 -13 66 -10 9 3 23 -7 36 -23
l21 -29 -27 -53 c-15 -29 -32 -56 -38 -60 -6 -5 -5 -8 3 -8 7 0 12 -13 12 -29
0 -16 17 -63 38 -105 l38 -76 -25 -24 c-39 -37 -208 -108 -256 -108 -58 0
-146 42 -206 99 -90 84 -100 141 -41 254 50 99 124 174 183 186 55 11 129 6
196 -14z m1171 -90 c41 -27 100 -72 172 -134 54 -46 190 -137 260 -173 16 -9
12 -14 -29 -40 -67 -43 -139 -68 -172 -61 -25 6 -29 12 -29 39 0 43 -60 164
-101 203 -64 60 -193 102 -324 104 l-50 0 45 21 c50 23 156 56 183 57 10 1 30
-7 45 -16z m-44 -124 c93 -32 137 -66 176 -141 25 -47 25 -46 -5 -40 -31 5
-54 -12 -72 -56 -18 -43 -1 -80 46 -104 l33 -16 -45 -45 c-60 -61 -120 -74
-264 -59 -152 17 -250 66 -312 156 -48 69 -49 89 -8 137 19 22 48 67 63 98 29
59 48 74 118 92 49 13 204 0 270 -22z m186 -229 c8 -16 7 -26 -7 -45 -21 -28
-37 -27 -41 3 -4 24 14 62 28 62 5 0 14 -9 20 -20z m-2824 -177 c-9 -38 -51
-73 -87 -73 -29 0 -29 0 -13 26 17 25 81 74 97 74 5 0 6 -12 3 -27z m2468 -84
c43 -6 85 -17 93 -24 7 -8 30 -48 50 -90 32 -68 36 -85 37 -163 1 -73 -3 -94
-22 -129 -19 -37 -25 -41 -45 -34 -12 5 -21 16 -21 26 2 15 0 15 -15 1 -10 -9
-25 -16 -34 -16 -9 0 -32 -14 -51 -31 -26 -22 -42 -29 -58 -25 -21 6 -22 5 -5
-6 54 -38 54 -36 6 -43 -60 -9 -109 12 -161 67 -69 74 -91 113 -78 137 6 12
12 21 13 21 2 0 27 -22 55 -50 67 -65 86 -65 22 0 -28 27 -50 54 -50 60 0 6
12 32 26 56 l27 45 33 -32 c42 -41 44 -31 3 15 -29 34 -30 36 -18 76 l13 42
23 -46 c32 -63 38 -58 8 7 -19 40 -25 69 -25 123 l0 71 48 -23 c26 -13 83 -29
126 -35z m-1705 -144 c14 -8 21 -14 16 -15 -6 0 -16 -14 -23 -30 -25 -56 -78
-64 -100 -14 -14 28 -16 67 -4 78 10 10 78 -1 111 -19z m1134 -146 c37 -10 77
-55 77 -87 0 -30 -125 14 -165 58 -16 18 -17 23 -5 30 20 13 46 12 93 -1z
m671 -172 c17 -13 17 -14 -5 -29 -31 -19 -99 -42 -106 -34 -3 3 6 21 21 41 29
37 59 45 90 22z m-1412 -151 c30 -41 58 -122 58 -165 -1 -44 -39 -113 -87
-157 -33 -31 -44 -47 -39 -60 6 -15 12 -12 47 22 23 21 53 60 67 85 l27 46 89
-3 c49 -2 97 1 106 6 16 9 17 2 13 -78 -4 -57 0 -116 11 -173 9 -47 16 -98 16
-112 0 -15 5 -27 11 -27 8 0 9 33 4 113 -8 127 2 176 62 302 32 69 37 73 79
85 46 13 142 8 202 -11 30 -10 33 -14 27 -37 -3 -14 -5 -67 -4 -117 1 -49 2
-114 1 -142 0 -29 4 -53 9 -53 18 0 29 52 29 134 0 95 15 155 56 221 l29 46
88 -5 c75 -4 95 -9 143 -36 42 -25 54 -36 48 -49 -10 -23 -23 -100 -23 -138
-1 -22 4 -33 13 -33 9 0 15 18 19 55 3 30 15 72 27 93 19 34 29 40 99 60 101
29 164 28 254 -3 39 -14 98 -28 130 -32 66 -7 64 -14 -13 -38 -30 -9 -93 -38
-140 -64 -208 -115 -456 -230 -555 -255 -55 -15 -136 -45 -180 -68 -44 -22
-146 -62 -226 -89 -80 -26 -188 -67 -240 -90 -86 -38 -252 -99 -271 -99 -5 0
5 18 21 41 45 62 55 124 31 201 -26 86 -69 149 -160 240 -75 73 -81 77 -176
108 -91 29 -136 50 -107 50 7 0 71 72 144 160 l133 159 50 -27 c27 -15 62 -45
78 -66z m-555 -121 c28 -8 62 -24 77 -36 23 -18 26 -27 26 -88 0 -166 -139
-285 -333 -286 -76 0 -80 1 -107 32 -27 30 -28 34 -15 59 16 31 11 49 -23 87
l-26 27 19 56 c25 75 82 118 197 148 70 19 123 19 185 1z m2233 -104 c0 -5
-11 -39 -25 -76 -14 -37 -30 -89 -36 -116 -6 -27 -19 -59 -29 -71 -18 -22 -20
-22 -32 -6 -7 10 -37 22 -67 28 -51 9 -171 67 -171 82 0 3 57 37 127 74 149
79 233 110 233 85z m-2014 -62 c98 -30 142 -58 223 -145 71 -77 127 -172 138
-237 14 -86 -65 -200 -179 -256 -111 -56 -185 -37 -295 75 -71 72 -100 124
-136 240 l-24 81 54 32 c64 39 105 92 123 158 17 67 19 73 24 73 2 0 35 -9 72
-21z m-586 -120 c0 -29 -19 -32 -30 -4 -6 14 -10 33 -10 42 0 14 3 14 20 -2
11 -10 20 -26 20 -36z m2413 -94 c26 -9 47 -21 47 -25 0 -5 -13 -24 -28 -42
-52 -61 -89 -123 -96 -163 -4 -22 -19 -74 -32 -117 -32 -99 -66 -136 -163
-174 -42 -17 -91 -45 -113 -66 -47 -43 -50 -42 -162 35 -38 26 -74 47 -78 47
-5 0 -46 17 -91 39 -45 21 -112 51 -149 66 -50 20 -76 38 -104 71 -20 25 -35
46 -33 47 2 1 63 31 135 66 l132 64 41 -16 c46 -19 276 -57 343 -57 24 0 63
-6 88 -14 49 -14 70 -12 70 9 0 21 -49 33 -182 45 -115 11 -263 44 -273 61 -3
4 25 19 63 34 37 15 76 35 87 45 11 9 38 23 60 30 22 7 67 27 100 44 33 17 78
38 100 47 l40 17 75 -39 c41 -21 96 -45 123 -54z m-2093 -147 c36 -98 59 -138
113 -201 l50 -59 -99 4 -99 3 -14 57 c-13 51 -13 66 4 157 10 56 19 101 20
101 2 0 13 -28 25 -62z m1011 -201 c31 -7 63 -17 70 -24 8 -7 51 -26 94 -44
44 -17 85 -35 90 -39 6 -4 46 -22 90 -40 44 -18 98 -46 119 -62 22 -15 47 -28
55 -28 9 0 36 -14 60 -30 24 -17 48 -30 53 -30 4 0 -7 -21 -26 -47 -20 -27
-54 -77 -78 -113 -77 -116 -126 -135 -310 -118 -97 9 -142 9 -189 0 -56 -10
-79 -22 -157 -78 -20 -15 -31 -16 -93 -4 -56 9 -72 16 -79 34 -5 11 -26 37
-47 57 -22 19 -52 58 -68 85 -15 27 -45 68 -65 91 -20 23 -60 79 -89 125 -28
46 -58 92 -67 104 -14 20 -12 22 43 42 32 11 83 23 113 26 30 3 73 9 95 12 44
5 24 18 235 -156 43 -36 133 -109 199 -163 66 -53 123 -102 126 -107 6 -10 78
-50 90 -50 3 0 5 8 5 18 0 18 -119 120 -292 251 -60 46 -113 96 -141 135 -25
34 -54 70 -66 80 -22 20 -20 36 7 36 9 0 44 14 77 30 33 16 67 26 75 23 8 -2
40 -10 71 -16z m-743 -121 c42 -22 112 -103 145 -167 15 -31 50 -77 77 -104
27 -26 55 -62 62 -79 7 -17 30 -49 51 -71 21 -22 47 -52 58 -66 l19 -27 -110
24 c-61 13 -168 33 -239 43 -70 11 -159 30 -196 43 -112 36 -233 123 -376 268
l-125 127 130 8 131 7 42 -49 c23 -26 62 -84 87 -128 56 -97 181 -234 199
-216 8 8 -8 31 -69 94 -45 45 -93 105 -109 132 -15 28 -47 75 -71 107 -24 31
-44 59 -44 62 0 20 298 13 338 -8z"/>
<path d="M3300 3946 c-19 -7 -42 -25 -50 -40 -14 -26 -14 -28 13 -52 38 -32
99 -33 121 -2 23 33 20 74 -6 92 -26 19 -31 19 -78 2z m76 -37 c12 -20 -17
-49 -49 -49 -41 0 -60 13 -55 36 5 28 88 39 104 13z"/>
<path d="M3263 3650 c0 -25 2 -35 4 -22 2 12 2 32 0 45 -2 12 -4 2 -4 -23z"/>
<path d="M3481 3634 c0 -11 3 -14 6 -6 3 7 2 16 -1 19 -3 4 -6 -2 -5 -13z"/>
<path d="M3161 3584 c0 -11 3 -14 6 -6 3 7 2 16 -1 19 -3 4 -6 -2 -5 -13z"/>
<path d="M3362 3475 c-18 -15 -32 -32 -32 -39 0 -20 52 -63 93 -76 32 -10 42
-9 62 4 28 18 40 54 31 90 -7 27 -16 32 -78 41 -39 6 -48 3 -76 -20z m119 -21
c13 -8 11 -38 -3 -52 -17 -17 -55 -15 -89 5 -32 19 -36 32 -16 52 12 12 86 9
108 -5z"/>
<path d="M3278 3433 c6 -2 18 -2 25 0 6 3 1 5 -13 5 -14 0 -19 -2 -12 -5z"/>
<path d="M3278 3383 c6 -2 18 -2 25 0 6 3 1 5 -13 5 -14 0 -19 -2 -12 -5z"/>
<path d="M3558 3378 c5 -5 16 -8 23 -6 8 3 3 7 -10 11 -17 4 -21 3 -13 -5z"/>
<path d="M3130 3365 c-7 -9 -11 -17 -9 -20 3 -2 10 5 17 15 14 24 10 26 -8 5z"/>
<path d="M3610 3331 c0 -17 4 -32 8 -35 4 -2 6 11 4 30 -5 42 -12 45 -12 5z"/>
<path d="M3280 3340 c0 -5 5 -10 11 -10 5 0 7 5 4 10 -3 6 -8 10 -11 10 -2 0
-4 -4 -4 -10z"/>
<path d="M3324 3323 c-30 -42 -36 -53 -27 -53 4 0 18 18 31 40 26 46 24 52 -4
13z"/>
<path d="M3144 3308 l-19 -23 23 19 c12 11 22 21 22 23 0 8 -8 2 -26 -19z"/>
<path d="M3366 3305 c-9 -26 -7 -32 5 -12 6 10 9 21 6 23 -2 3 -7 -2 -11 -11z"/>
<path d="M3592 3295 c0 -16 2 -22 5 -12 2 9 2 23 0 30 -3 6 -5 -1 -5 -18z"/>
<path d="M3410 3300 c0 -5 5 -10 10 -10 6 0 10 5 10 10 0 6 -4 10 -10 10 -5 0
-10 -4 -10 -10z"/>
<path d="M3470 3290 c0 -5 5 -10 10 -10 6 0 10 5 10 10 0 6 -4 10 -10 10 -5 0
-10 -4 -10 -10z"/>
<path d="M3110 3260 c-6 -11 -8 -20 -6 -20 3 0 10 9 16 20 6 11 8 20 6 20 -3
0 -10 -9 -16 -20z"/>
<path d="M3602 3230 c-1 -19 -5 -46 -8 -60 -5 -21 -4 -23 6 -7 6 9 9 36 7 60
-3 39 -4 39 -5 7z"/>
<path d="M3116 3213 c-6 -14 -5 -15 5 -6 7 7 10 15 7 18 -3 3 -9 -2 -12 -12z"/>
<path d="M3482 3150 c-1 -30 -5 -66 -8 -80 -5 -21 -4 -22 6 -8 6 10 9 45 7 80
l-3 63 -2 -55z"/>
<path d="M3517 3138 c-3 -24 -9 -54 -13 -67 -5 -16 -4 -22 4 -17 11 7 28 113
20 122 -3 2 -8 -15 -11 -38z"/>
<path d="M3548 3140 c-2 -22 0 -40 4 -40 5 0 8 18 8 40 0 22 -2 40 -4 40 -2 0
-6 -18 -8 -40z"/>
<path d="M3417 3080 c-3 -11 -1 -20 4 -20 5 0 9 9 9 20 0 11 -2 20 -4 20 -2 0
-6 -9 -9 -20z"/>
<path d="M3341 3054 c0 -11 3 -14 6 -6 3 7 2 16 -1 19 -3 4 -6 -2 -5 -13z"/>
<path d="M2870 3360 c-20 -6 -21 -8 -5 -8 11 0 31 4 45 8 20 6 21 8 5 8 -11 0
-31 -4 -45 -8z"/>
<path d="M2818 3343 c7 -3 16 -2 19 1 4 3 -2 6 -13 5 -11 0 -14 -3 -6 -6z"/>
<path d="M2775 3330 c-3 -6 1 -7 9 -4 18 7 21 14 7 14 -6 0 -13 -4 -16 -10z"/>
<path d="M2953 3313 c9 -2 23 -2 30 0 6 3 -1 5 -18 5 -16 0 -22 -2 -12 -5z"/>
<path d="M2898 3303 c7 -3 16 -2 19 1 4 3 -2 6 -13 5 -11 0 -14 -3 -6 -6z"/>
<path d="M2719 3223 c-13 -16 -12 -17 4 -4 9 7 17 15 17 17 0 8 -8 3 -21 -13z"/>
<path d="M2566 3184 c-19 -21 -24 -35 -19 -54 16 -67 55 -107 93 -95 54 17 66
78 27 136 -30 45 -66 50 -101 13z m74 -45 c16 -29 8 -63 -14 -67 -23 -5 -46
23 -46 54 0 36 43 46 60 13z"/>
<path d="M2952 3056 c-49 -35 -52 -43 -7 -16 47 27 63 40 50 40 -6 -1 -25 -11
-43 -24z"/>
<path d="M2994 3028 l-29 -33 33 29 c17 17 32 31 32 33 0 8 -8 1 -36 -29z"/>
<path d="M4160 3090 c0 -5 5 -10 10 -10 6 0 10 5 10 10 0 6 -4 10 -10 10 -5 0
-10 -4 -10 -10z"/>
<path d="M3770 2662 c0 -14 56 -96 76 -112 15 -12 15 -10 -3 10 -11 14 -31 44
-43 68 -21 41 -30 51 -30 34z"/>
<path d="M3850 2666 c0 -4 11 -22 25 -40 14 -18 25 -38 25 -44 0 -7 5 -12 11
-12 5 0 0 18 -13 41 -22 39 -48 69 -48 55z"/>
<path d="M3920 2661 c0 -6 5 -13 11 -17 6 -3 22 -30 35 -58 13 -28 24 -45 24
-39 0 18 -53 123 -62 123 -4 0 -8 -4 -8 -9z"/>
<path d="M3660 2478 c0 -18 83 -98 102 -98 7 0 3 7 -9 15 -12 8 -38 34 -57 57
-21 24 -36 35 -36 26z"/>
<path d="M3921 2334 c0 -11 3 -14 6 -6 3 7 2 16 -1 19 -3 4 -6 -2 -5 -13z"/>
<path d="M2358 2013 c7 -3 16 -2 19 1 4 3 -2 6 -13 5 -11 0 -14 -3 -6 -6z"/>
<path d="M2290 1951 c0 -8 90 -3 99 5 2 2 -19 4 -47 4 -29 0 -52 -4 -52 -9z"/>
<path d="M1650 1800 c0 -5 7 -10 15 -10 8 0 15 5 15 10 0 6 -7 10 -15 10 -8 0
-15 -4 -15 -10z"/>
<path d="M1693 1774 c-7 -19 2 -28 22 -21 19 8 19 23 0 31 -9 3 -18 -1 -22
-10z"/>
<path d="M1733 1735 c-7 -20 2 -29 21 -22 9 4 13 13 10 22 -8 19 -23 19 -31 0z"/>
<path d="M1908 1713 c7 -3 16 -2 19 1 4 3 -2 6 -13 5 -11 0 -14 -3 -6 -6z"/>
<path d="M1700 1680 c0 -5 5 -10 10 -10 6 0 10 5 10 10 0 6 -4 10 -10 10 -5 0
-10 -4 -10 -10z"/>
<path d="M1690 1630 c0 -5 5 -10 10 -10 6 0 10 5 10 10 0 6 -4 10 -10 10 -5 0
-10 -4 -10 -10z"/>
<path d="M2265 1774 c6 -5 28 -25 50 -44 l40 -35 -30 33 c-17 19 -39 38 -50
44 -11 6 -15 7 -10 2z"/>
<path d="M2160 1646 c0 -3 9 -10 20 -16 11 -6 20 -8 20 -6 0 3 -9 10 -20 16
-11 6 -20 8 -20 6z"/>
<path d="M2130 1607 c0 -2 15 -16 33 -33 l32 -29 -29 33 c-28 30 -36 37 -36
29z"/>
<path d="M2100 1571 c0 -6 4 -13 10 -16 6 -3 7 1 4 9 -7 18 -14 21 -14 7z"/>
<path d="M2076 1528 c22 -37 61 -81 88 -100 22 -16 18 -9 -16 25 -26 26 -50
56 -53 67 -4 11 -11 20 -16 20 -6 0 -7 -6 -3 -12z"/>
<path d="M2420 1497 c0 -19 16 -31 24 -18 3 5 -1 14 -9 21 -12 10 -15 10 -15
-3z"/>
<path d="M2480 1480 c0 -5 5 -10 10 -10 6 0 10 5 10 10 0 6 -4 10 -10 10 -5 0
-10 -4 -10 -10z"/>
<path d="M2385 1451 c-6 -11 9 -23 19 -14 9 9 7 23 -3 23 -6 0 -12 -4 -16 -9z"/>
<path d="M2448 1428 c-17 -14 -21 -27 -19 -69 1 -35 20 -56 58 -64 60 -12 97
66 57 123 -17 25 -70 30 -96 10z m96 -41 c13 -36 -2 -61 -38 -65 -37 -5 -56
14 -56 53 0 41 7 47 49 43 29 -2 38 -8 45 -31z"/>
<path d="M2350 1390 c0 -5 5 -10 10 -10 6 0 10 5 10 10 0 6 -4 10 -10 10 -5 0
-10 -4 -10 -10z"/>
<path d="M2340 1340 c0 -5 5 -10 10 -10 6 0 10 5 10 10 0 6 -4 10 -10 10 -5 0
-10 -4 -10 -10z"/>
<path d="M2375 1311 c-16 -3 -29 -11 -27 -16 2 -12 7 -12 45 -1 15 5 27 12 27
17 0 10 -1 10 -45 0z"/>
<path d="M2480 1270 c0 -5 5 -10 10 -10 6 0 10 5 10 10 0 6 -4 10 -10 10 -5 0
-10 -4 -10 -10z"/>
<path d="M2400 1260 c0 -5 4 -10 9 -10 6 0 13 5 16 10 3 6 -1 10 -9 10 -9 0
-16 -4 -16 -10z"/>
<path d="M3221 2824 c0 -11 3 -14 6 -6 3 7 2 16 -1 19 -3 4 -6 -2 -5 -13z"/>
<path d="M1470 2810 c0 -5 5 -10 10 -10 6 0 10 5 10 10 0 6 -4 10 -10 10 -5 0
-10 -4 -10 -10z"/>
<path d="M1435 2770 c-4 -6 -3 -16 3 -22 6 -6 12 -6 17 2 4 6 3 16 -3 22 -6 6
-12 6 -17 -2z"/>
<path d="M1410 2716 c0 -8 5 -18 10 -21 6 -3 10 1 10 9 0 8 -4 18 -10 21 -5 3
-10 -1 -10 -9z"/>
<path d="M1285 2658 c8 -35 12 -44 19 -37 7 8 -6 69 -16 69 -6 0 -7 -13 -3
-32z"/>
<path d="M1327 2684 c-8 -8 1 -24 14 -24 5 0 9 7 9 15 0 15 -12 20 -23 9z"/>
<path d="M1370 2680 c0 -5 5 -10 10 -10 6 0 10 5 10 10 0 6 -4 10 -10 10 -5 0
-10 -4 -10 -10z"/>
<path d="M2010 2530 c0 -5 5 -10 10 -10 6 0 10 5 10 10 0 6 -4 10 -10 10 -5 0
-10 -4 -10 -10z"/>
<path d="M2016 2473 c-11 -11 -6 -23 9 -23 8 0 15 4 15 9 0 13 -16 22 -24 14z"/>
<path d="M2225 2451 c-7 -12 12 -24 25 -16 11 7 4 25 -10 25 -5 0 -11 -4 -15
-9z"/>
<path d="M1550 2408 c17 -26 35 -50 41 -53 6 -4 24 -25 40 -47 16 -23 29 -37
29 -31 0 5 -21 35 -47 65 -27 30 -58 68 -71 84 -13 16 -9 8 8 -18z"/>
<path d="M2130 2414 c0 -8 5 -12 10 -9 6 3 10 10 10 16 0 5 -4 9 -10 9 -5 0
-10 -7 -10 -16z"/>
<path d="M1400 2384 c0 -23 61 -104 90 -119 18 -9 34 -14 37 -11 3 3 -5 10
-18 15 -29 11 -71 55 -92 96 -9 17 -16 25 -17 19z"/>
<path d="M1485 2380 c22 -41 78 -120 82 -116 2 2 -12 28 -33 58 -40 56 -63 84
-49 58z"/>
<path d="M1875 2309 c-4 -6 -5 -12 -2 -15 2 -3 7 2 10 11 7 17 1 20 -8 4z"/>
<path d="M1857 2267 c-13 -34 -17 -104 -8 -132 10 -28 10 -27 5 10 -3 23 -1
61 5 85 10 44 9 64 -2 37z"/>
<path d="M1912 2200 c0 -19 2 -27 5 -17 2 9 2 25 0 35 -3 9 -5 1 -5 -18z"/>
<path d="M2002 2210 c0 -14 2 -19 5 -12 2 6 2 18 0 25 -3 6 -5 1 -5 -13z"/>
<path d="M2190 2201 c0 -34 -27 -90 -66 -138 -19 -24 -31 -43 -25 -43 16 0 90
119 97 156 3 19 4 38 0 41 -3 4 -6 -4 -6 -16z"/>
<path d="M1986 2141 c-3 -21 -9 -46 -12 -55 -3 -9 -2 -16 4 -16 6 0 13 23 17
51 8 59 1 78 -9 20z"/>
<path d="M2121 2154 c0 -11 3 -14 6 -6 3 7 2 16 -1 19 -3 4 -6 -2 -5 -13z"/>
<path d="M1902 2140 c0 -14 2 -19 5 -12 2 6 2 18 0 25 -3 6 -5 1 -5 -13z"/>
<path d="M2101 2104 c-6 -15 -9 -29 -7 -32 3 -2 10 8 16 23 14 36 7 43 -9 9z"/>
<path d="M2041 2094 c0 -11 3 -14 6 -6 3 7 2 16 -1 19 -3 4 -6 -2 -5 -13z"/>
<path d="M1450 1946 c0 -3 9 -10 20 -16 11 -6 20 -8 20 -6 0 3 -9 10 -20 16
-11 6 -20 8 -20 6z"/>
<path d="M1520 1906 c0 -2 7 -7 16 -10 8 -3 12 -2 9 4 -6 10 -25 14 -25 6z"/>
<path d="M1420 1816 c0 -2 8 -10 18 -17 15 -13 16 -12 3 4 -13 16 -21 21 -21
13z"/>
<path d="M1475 1760 c3 -5 8 -10 11 -10 2 0 4 5 4 10 0 6 -5 10 -11 10 -5 0
-7 -4 -4 -10z"/>
</g>
</svg>
